HIERARCHY
ROOT SimulationBone
{
	OFFSET 0.000000 0.000000 0.000000
	CHANNELS 6 Xposition Yposition Zposition Zrotation Yrotation Xrotation 
	JOINT Hips
	{
		OFFSET 0.000000 0.000000 0.000000
		CHANNELS 6 Xposition Yposition Zposition Zrotation Yrotation Xrotation 
		JOINT LeftUpLeg
		{
			OFFSET 0.103457 1.857818 10.548502
			CHANNELS 3 Zrotation Yrotation Xrotation
			JOINT LeftLeg
			{
				OFFSET 43.500000 -0.000011 -0.000004
				CHANNELS 3 Zrotation Yrotation Xrotation
				JOINT LeftFoot
				{
					OFFSET 42.372192 -0.000004 -0.000008
					CHANNELS 3 Zrotation Yrotation Xrotation
					JOINT LeftToe
					{
						OFFSET 17.300014 0.000006 0.000001
						CHANNELS 3 Zrotation Yrotation Xrotation
						End Site
						{
							OFFSET 0.000000 0.000000 0.000000
						}
					}
				}
			}
		}
		JOINT RightUpLeg
		{
			OFFSET 0.103457 1.857817 -10.548505
			CHANNELS 3 Zrotation Yrotation Xrotation
			JOINT RightLeg
			{
				OFFSET 43.500046 -0.000004 0.000011
				CHANNELS 3 Zrotation Yrotation Xrotation
				JOINT RightFoot
				{
					OFFSET 42.372257 0.000000 0.000015
					CHANNELS 3 Zrotation Yrotation Xrotation
					JOINT RightToe
					{
						OFFSET 17.300003 -0.000000 0.000002
						CHANNELS 3 Zrotation Yrotation Xrotation
						End Site
						{
							OFFSET 0.000000 0.000000 0.000000
						}
					}
				}
			}
		}
		JOINT Spine
		{
			OFFSET 6.901961 -2.603721 -0.000001
			CHANNELS 3 Zrotation Yrotation Xrotation
			JOINT Spine1
			{
				OFFSET 12.588108 0.000002 -0.000001
				CHANNELS 3 Zrotation Yrotation Xrotation
				JOINT Spine2
				{
					OFFSET 12.343199 -0.000020 0.000006
					CHANNELS 3 Zrotation Yrotation Xrotation
					JOINT Neck
					{
						OFFSET 25.832905 0.000017 0.000000
						CHANNELS 3 Zrotation Yrotation Xrotation
						JOINT Head
						{
							OFFSET 11.766604 -0.000006 0.000004
							CHANNELS 3 Zrotation Yrotation Xrotation
							End Site
							{
								OFFSET 0.000000 0.000000 0.000000
							}
						}
					}
					JOINT LeftShoulder
					{
						OFFSET 19.745903 -1.480350 6.000100
						CHANNELS 3 Zrotation Yrotation Xrotation
						JOINT LeftArm
						{
							OFFSET 11.284130 -0.000016 -0.000016
							CHANNELS 3 Zrotation Yrotation Xrotation
							JOINT LeftForeArm
							{
								OFFSET 33.000046 0.000004 0.000031
								CHANNELS 3 Zrotation Yrotation Xrotation
								JOINT LeftHand
								{
									OFFSET 25.199999 0.000027 0.000001
									CHANNELS 3 Zrotation Yrotation Xrotation
									End Site
									{
										OFFSET 0.000000 0.000000 0.000000
									}
								}
							}
						}
					}
					JOINT RightShoulder
					{
						OFFSET 19.746094 -1.480375 -6.000080
						CHANNELS 3 Zrotation Yrotation Xrotation
						JOINT RightArm
						{
							OFFSET 11.284131 -0.000016 -0.000017
							CHANNELS 3 Zrotation Yrotation Xrotation
							JOINT RightForeArm
							{
								OFFSET 33.000095 0.000009 0.000020
								CHANNELS 3 Zrotation Yrotation Xrotation
								JOINT RightHand
								{
									OFFSET 25.199789 0.000132 0.000423
									CHANNELS 3 Zrotation Yrotation Xrotation
									End Site
									{
										OFFSET 0.000000 0.000000 0.000000
									}
								}
							}
						}
					}
				}
			}
		}
	}
}
MOTION
Frames: 9
Frame Time: 0.016667
-114.852620 0.000000 -395.395932 0.000000 33.354333 0.000000 0.240366 89.225817 -0.681135 96.400047 1.621044 -178.397888 165.435808 -10.307982 172.817516 -70.391392 0.028065 -1.178002 67.561763 -1.390486 -6.080958 21.454563 0.003086 0.000003 169.838862 2.751738 -167.599415 -30.967545 4.582485 10.379791 80.881175 -6.958469 1.570826 21.454559 -0.003109 -0.000017 9.166961 2.046615 1.515020 8.381366 3.978171 3.176127 8.062982 3.997416 3.152044 16.711631 -6.658525 -14.541800 -12.166452 22.001805 -22.389649 -159.053560 -77.011766 -22.882297 11.534354 69.900542 46.495725 -31.204569 -11.585412 1.033404 13.320085 1.779363 46.449795 -171.335692 71.249141 10.289875 -31.884022 -43.723675 -8.896533 -30.628529 10.347795 -0.965582 6.830993 0.481904 -9.352935 
-114.197380 0.000000 -395.726776 0.000000 33.438561 0.000000 0.220031 89.223534 -0.801085 96.422777 1.471208 -178.555252 164.027184 -10.630599 172.016784 -70.831233 -0.206391 -1.046965 68.184616 -1.292099 -5.670898 21.454560 0.003089 0.000000 170.196416 3.020004 -167.321685 -31.332665 4.526660 10.116659 81.396695 -6.745340 1.693301 21.454558 -0.003109 -0.000017 9.195691 2.093984 1.577565 8.442630 4.067331 3.305723 8.124248 4.087356 3.281094 16.624457 -6.610971 -14.403988 -12.050230 22.097370 -22.252172 -159.503507 -77.019776 -22.423191 10.709600 71.096420 46.408674 -32.478594 -11.784329 1.071727 12.515967 2.112972 46.207509 -173.067021 71.210853 8.506980 -32.715003 -42.222111 -13.094497 -27.544858 9.318232 -0.843544 7.743737 -2.465808 -11.912350 
-113.553836 0.000000 -396.068689 0.000000 33.468793 0.000000 0.185272 89.240496 -0.926170 96.389388 1.284761 -178.652684 162.700286 -10.887518 171.505817 -70.704139 -0.489746 -1.201553 68.539180 -1.221551 -5.877277 21.454558 0.003093 -0.000001 170.525634 3.316455 -167.101406 -31.607848 4.477713 9.887860 81.853207 -6.553775 1.833715 21.454558 -0.003109 -0.000017 9.215273 2.124757 1.627795 8.484641 4.124482 3.409162 8.166266 4.145125 3.384189 16.498539 -6.577216 -14.292562 -11.938056 22.168036 -22.136477 -160.045239 -77.088979 -21.869563 9.932711 72.252664 46.437147 -33.935930 -12.208722 1.130243 11.591962 2.261334 46.670128 -174.498906 71.205980 7.032650 -33.384682 -41.234823 -16.933942 -25.371096 8.685892 -0.768635 8.869943 -5.882260 -16.402728 
-112.921592 0.000000 -396.423505 0.000000 33.449018 0.000000 0.135340 89.267723 -1.049057 96.311306 1.094462 -178.686779 161.481696 -11.089497 171.282990 -70.076927 -0.836165 -1.563093 68.759192 -1.149843 -6.495335 21.454557 0.003095 -0.000001 170.832402 3.596297 -166.936367 -31.800240 4.422763 9.704025 82.254724 -6.388651 2.000502 21.454560 -0.003109 -0.000017 9.227280 2.142777 1.670342 8.510861 4.156944 3.496014 8.192498 4.178105 3.470850 16.332946 -6.521326 -14.221301 -11.841102 22.215907 -22.059209 -160.678532 -77.214799 -21.221888 9.135142 73.291880 46.474428 -35.424806 -12.841508 1.204860 10.628784 2.271458 48.296943 -175.428518 71.219725 6.075701 -33.824294 -40.765201 -20.128708 -24.126233 8.497436 -0.735258 10.339885 -9.372548 -22.632098 
-112.299930 0.000000 -396.790972 0.000000 33.382293 0.000000 0.071538 89.296251 -1.163737 96.202356 0.934557 -178.665088 160.393645 -11.254447 171.321362 -69.020347 -1.247114 -2.020920 69.016694 -1.020155 -7.170258 21.454555 0.003095 -0.000002 171.124537 3.813113 -166.825926 -31.916622 4.348063 9.569895 82.605028 -6.251467 2.199069 21.454559 -0.003109 -0.000017 9.233478 2.152402 1.708736 8.525101 4.173124 3.573720 8.206753 4.194751 3.548461 16.137498 -6.417789 -14.194193 -11.765034 22.245756 -22.026149 -161.365619 -77.379444 -20.519121 8.241877 74.127612 46.387573 -36.776514 -13.622314 1.286239 9.727879 2.213937 51.388349 -175.704971 71.230315 5.791159 -33.997002 -40.767851 -22.443783 -23.760407 8.727487 -0.745016 12.207191 -12.494820 -30.131599 
-111.690290 0.000000 -397.171085 0.000000 33.270199 0.000000 0.005007 89.337677 -1.269072 96.078366 0.788659 -178.613924 159.463320 -11.373598 171.572918 -67.473389 -1.639602 -2.636798 69.431713 -0.711081 -7.701171 21.454553 0.003095 -0.000003 171.441109 3.978502 -166.784914 -31.917910 4.257723 9.478779 82.890990 -6.139462 2.420800 21.454558 -0.003109 -0.000017 9.236060 2.149948 1.738792 8.531147 4.165913 3.633704 8.212820 4.187901 3.608488 15.935412 -6.276645 -14.190174 -11.700074 22.260594 -22.013491 -162.000296 -77.543980 -19.870109 7.236304 74.672672 46.095359 -37.854420 -14.394222 1.363712 9.054043 2.130358 55.613001 -175.379232 71.211324 6.126286 -33.908207 -41.123304 -23.872985 -24.103768 9.199905 -0.780862 14.382020 -14.811952 -37.896132 
-111.097328 0.000000 -397.567813 0.000000 33.112782 0.000000 -0.053532 89.405206 -1.360901 95.953388 0.632686 -178.558732 158.724301 -11.423356 171.985369 -65.361255 -1.903542 -3.462262 70.055061 -0.149079 -7.982911 21.454551 0.003099 -0.000002 171.820285 4.117346 -166.826448 -31.764684 4.162143 9.420136 83.099037 -6.048131 2.653183 21.454558 -0.003108 -0.000017 9.237091 2.131150 1.754407 8.532651 4.127184 3.663516 8.214349 4.149353 3.638529 15.748776 -6.120250 -14.181894 -11.632008 22.261531 -21.989893 -162.467431 -77.670306 -19.392541 6.157682 74.855122 45.580295 -38.560658 -14.993814 1.421072 8.760440 2.009099 60.390625 -174.582670 71.136756 6.945786 -33.593068 -41.705432 -24.490287 -24.942843 9.718888 -0.826448 16.529169 -16.010476 -44.769475 
-110.525147 0.000000 -397.986020 0.000000 32.908569 0.000000 -0.106224 89.497917 -1.436358 95.832094 0.463185 -178.505982 158.229351 -11.339604 172.511427 -62.687113 -1.936667 -4.341325 70.713391 0.485692 -8.152248 21.454550 0.003101 -0.000001 172.264898 4.249208 -166.942896 -31.461814 4.079096 9.380272 83.230902 -5.971146 2.882065 21.454560 -0.003108 -0.000017 9.237732 2.097481 1.749538 8.532819 4.060291 3.651222 8.214544 4.082387 3.626640 15.581723 -5.985138 -14.142534 -11.544482 22.244072 -21.923615 -162.727397 -77.741365 -19.126809 5.142856 74.667337 44.960301 -38.930650 -15.326828 1.451440 8.890040 1.788220 64.746777 -173.548727 71.004062 8.009593 -33.094885 -42.409190 -24.501199 -26.008364 10.162704 -0.872959 18.084987 -16.011919 -49.821619 
-109.974826 0.000000 -398.426829 0.000000 32.655370 0.000000 -0.157846 89.612906 -1.497496 95.715699 0.277533 -178.461175 158.027260 -11.063278 173.122695 -59.469690 -1.676807 -5.061907 71.204483 0.992254 -8.306584 21.454550 0.003098 -0.000000 172.768316 4.393815 -167.124723 -31.022998 4.023924 9.345285 83.291363 -5.901597 3.094688 21.454561 -0.003109 -0.000017 9.238860 2.050701 1.720697 8.534053 3.968982 3.590013 8.215803 3.990713 3.565994 15.432547 -5.907243 -14.050567 -11.425088 22.202976 -21.789514 -162.779932 -77.751734 -19.073128 4.336538 74.138161 44.372301 -39.043384 -15.347162 1.455547 9.407765 1.423783 67.754906 -172.507952 70.824222 9.080626 -32.453367 -43.149365 -24.126710 -27.045342 10.453595 -0.909514 18.556700 -14.912609 -52.329035 
